<?xml version="1.0" standalone="no"?>
<!DOCTYPE svg PUBLIC "-//W3C//DTD SVG 20010904//EN"
 "http://www.w3.org/TR/2001/REC-SVG-20010904/DTD/svg10.dtd">
<svg version="1.0" xmlns="http://www.w3.org/2000/svg"
 width="400.000000pt" height="400.000000pt" viewBox="0 0 400.000000 400.000000"
 preserveAspectRatio="xMidYMid meet">
<metadata>
Created by potrace 1.11, written by Peter Selinger 2001-2013
</metadata>
<g transform="translate(0.000000,400.000000) scale(0.100000,-0.100000)"
fill="#000000" stroke="none">
<path d="M1900 3931 c-14 -5 -410 -169 -880 -365 -513 -215 -862 -365 -872
-378 -15 -17 -18 -42 -18 -168 0 -195 -1 -193 142 -200 101 -5 103 -5 106 -30
6 -55 14 -70 42 -85 26 -13 213 -15 1580 -15 1367 0 1554 2 1580 15 28 15 36
30 42 85 3 25 5 25 106 30 143 7 142 5 142 200 0 126 -3 151 -17 168 -11 13
-365 166 -883 383 l-865 361 -90 4 c-49 2 -101 0 -115 -5z m841 -642 c398
-149 728 -275 734 -280 5 -5 -619 -9 -1475 -9 -816 0 -1480 3 -1476 8 12 12
1449 550 1472 551 11 1 347 -121 745 -270z"/>
<path d="M570 1765 l0 -855 295 0 295 0 0 855 0 855 -295 0 -295 0 0 -855z
m368 773 c17 -17 15 -43 -4 -59 -31 -26 -70 25 -44 56 15 18 32 19 48 3z m122
-3 c26 -31 -13 -82 -44 -56 -21 18 -20 48 2 60 23 14 28 13 42 -4z m-36 -217
c8 -13 8 -23 0 -35 -10 -16 -31 -18 -165 -21 -136 -2 -155 -1 -166 15 -17 22
-16 28 3 48 13 13 39 15 166 13 131 -3 152 -5 162 -20z m1 -183 l0 -30 -164 0
c-142 0 -165 2 -174 17 -8 12 -7 21 3 32 11 14 36 16 174 14 l161 -3 0 -30z
m-1 -127 c8 -13 8 -23 0 -35 -10 -16 -31 -18 -150 -21 -76 -1 -149 0 -160 3
-27 6 -37 30 -23 56 9 18 20 19 166 17 136 -3 157 -5 167 -20z m-13 -138 c10
-6 19 -19 19 -28 0 -37 -19 -42 -175 -42 -150 0 -175 5 -175 36 0 7 7 20 16
28 13 13 41 16 155 16 78 0 149 -5 160 -10z m7 -152 c18 -18 14 -46 -7 -58
-11 -5 -82 -10 -160 -10 -114 0 -142 3 -155 16 -9 8 -16 21 -16 28 0 31 25 36
175 36 104 0 155 -4 163 -12z m6 -170 c8 -13 8 -23 0 -35 -10 -16 -31 -18
-164 -21 -157 -3 -180 2 -180 37 0 37 19 42 179 39 134 -3 155 -5 165 -20z"/>
<path d="M1690 1765 l0 -855 300 0 300 0 0 855 0 855 -300 0 -300 0 0 -855z
m374 769 c19 -18 19 -20 6 -45 -6 -10 -19 -19 -30 -19 -16 0 -40 26 -40 44 0
8 31 36 40 36 5 0 16 -7 24 -16z m120 0 c19 -18 19 -20 6 -45 -6 -10 -19 -19
-30 -19 -16 0 -40 26 -40 44 0 8 31 36 40 36 5 0 16 -7 24 -16z m-40 -210 c19
-18 19 -20 6 -45 -10 -17 -23 -19 -163 -19 -156 0 -177 5 -177 40 0 35 21 40
171 40 121 0 150 -3 163 -16z m5 -173 c7 -13 7 -23 -2 -35 -11 -14 -32 -16
-172 -14 -145 3 -160 5 -163 21 -9 45 -1 47 167 47 146 0 161 -2 170 -19z m1
-140 c13 -25 13 -27 -6 -45 -13 -13 -42 -16 -163 -16 -150 0 -171 5 -171 40 0
35 21 40 177 40 140 0 153 -2 163 -19z m-10 -145 c6 -8 10 -25 8 -38 -3 -23
-3 -23 -168 -23 -165 0 -165 0 -168 23 -7 47 9 52 168 52 116 0 150 -3 160
-14z m10 -156 c8 -15 6 -24 -10 -40 -18 -18 -33 -20 -156 -20 -74 0 -144 5
-155 10 -18 10 -26 50 -12 63 3 4 77 7 164 7 147 0 159 -1 169 -20z m-6 -162
c8 -13 8 -23 0 -35 -10 -16 -31 -18 -162 -21 -127 -2 -153 0 -166 13 -20 21
-20 29 0 50 13 13 39 15 166 13 131 -3 152 -5 162 -20z"/>
<path d="M2820 1765 l0 -855 300 0 300 0 0 855 0 855 -300 0 -300 0 0 -855z
m374 769 c19 -18 19 -20 6 -45 -6 -10 -19 -19 -30 -19 -16 0 -40 26 -40 44 0
8 31 36 40 36 5 0 16 -7 24 -16z m120 0 c20 -19 20 -38 1 -54 -21 -17 -55 -3
-55 24 0 21 17 46 31 46 4 0 15 -7 23 -16z m-40 -210 c9 -8 16 -21 16 -28 0
-31 -25 -36 -175 -36 -154 0 -175 5 -175 40 0 35 21 40 171 40 121 0 150 -3
163 -16z m5 -168 c9 -11 10 -20 1 -36 -11 -20 -17 -20 -173 -18 -147 3 -162 5
-165 21 -9 45 -1 47 166 47 127 0 162 -3 171 -14z m-1 -138 c16 -16 15 -33 -4
-52 -13 -13 -42 -16 -163 -16 -150 0 -171 5 -171 40 0 35 21 40 175 40 104 0
155 -4 163 -12z m-4 -160 c11 -15 12 -26 5 -40 -9 -16 -24 -18 -159 -18 -81 0
-155 3 -164 6 -19 7 -21 45 -4 62 8 8 58 12 159 12 140 0 149 -1 163 -22z m6
-147 c13 -25 13 -27 -6 -45 -13 -13 -41 -16 -155 -16 -78 0 -149 5 -160 10
-21 12 -26 56 -6 63 6 3 80 6 164 6 141 1 153 0 163 -18z m-12 -153 c17 -17
15 -55 -4 -62 -9 -3 -80 -6 -159 -6 -116 0 -147 3 -159 15 -15 16 -11 44 8 57
19 13 301 9 314 -4z"/>
<path d="M509 841 c-39 -12 -77 -40 -102 -75 -18 -25 -23 -49 -27 -126 l-5
-95 -40 -3 c-78 -5 -106 -13 -141 -44 -61 -53 -67 -75 -65 -220 1 -55 5 -81
17 -92 14 -14 196 -16 1854 -16 1658 0 1840 2 1854 16 22 21 23 212 2 253 -35
67 -91 97 -191 103 l-40 3 -5 95 c-6 108 -22 141 -88 182 l-37 23 -1480 2
c-814 1 -1492 -2 -1506 -6z m2741 -311 l0 -60 -1250 0 -1250 0 0 60 0 60 1250
0 1250 0 0 -60z"/>
</g>
</svg>
